<svg xmlns="http://www.w3.org/2000/svg" viewBox="0 0 512 512" role="img" aria-labelledby="title desc">
  <title id="title">Zolder Resort Roomservice</title>
  <desc id="desc">Gouden kroon boven een roze roomservicebel op een auberginekleurige achtergrond.</desc>
  <defs>
    <linearGradient id="bg" x1="0" y1="0" x2="1" y2="1"><stop stop-color="#382447"/><stop offset="1" stop-color="#160f20"/></linearGradient>
    <linearGradient id="bell" x1="0" y1="0" x2="1" y2="1"><stop stop-color="#f8c7d5"/><stop offset="1" stop-color="#e49bb2"/></linearGradient>
    <linearGradient id="gold" x1="0" y1="0" x2="1" y2="1"><stop stop-color="#fff0bd"/><stop offset="1" stop-color="#e4bd6d"/></linearGradient>
  </defs>
  <rect width="512" height="512" rx="112" fill="url(#bg)"/>
  <circle cx="256" cy="264" r="174" fill="none" stroke="#f6d99a" stroke-opacity=".16" stroke-width="4"/>
  <path d="M164 182l28-64 64 48 64-48 28 64z" fill="url(#gold)" stroke="#fff0bd" stroke-width="7" stroke-linejoin="round"/>
  <circle cx="192" cy="118" r="12" fill="#f8c7d5"/><circle cx="256" cy="155" r="12" fill="#f8c7d5"/><circle cx="320" cy="118" r="12" fill="#f8c7d5"/>
  <path d="M153 355h206M181 346c7-76 49-121 75-121s68 45 75 121" fill="url(#bell)" stroke="#fffaf4" stroke-width="13" stroke-linecap="round" stroke-linejoin="round"/>
  <path d="M145 359h222c0 20-16 36-36 36H181c-20 0-36-16-36-36z" fill="url(#gold)"/>
  <circle cx="256" cy="217" r="15" fill="url(#gold)" stroke="#fffaf4" stroke-width="6"/>
  <text x="256" y="455" fill="#fffaf4" font-family="Georgia,serif" font-size="40" font-weight="700" text-anchor="middle" letter-spacing="7">ZR</text>
</svg>
